<svg id="Capa_1" enable-background="new 0 0 512 512" height="512" viewBox="0 0 512 512" width="512" xmlns="http://www.w3.org/2000/svg"><g><g><path d="m28.017 372.641c-15.473 0-28.017-12.544-28.017-28.017v-344.624h176.227l48.823 38.303h197.033v56.034c-140.39 121.029-231.318 278.304-394.066 278.304z" fill="#3d9ae2"/><g><path d="m56.034 94.337v250.287c0 15.473-12.544 28.017-28.017 28.017h225.05l26.373-144.123-26.373-134.18h-197.033z" fill="#96c8ef"/><path d="m253.067 94.337v278.304h169.016c15.473 0 28.017-12.544 28.017-28.017v-250.287z" fill="#69b1e9"/></g><g><path d="m253.067 294.251h-103.663v-30h103.663l17.582 15z" fill="#69b1e9"/></g><g><path d="m253.067 264.251h103.663v30h-103.663z" fill="#3d9ae2"/></g></g><g><circle cx="415.159" cy="415.159" fill="#001737" r="96.841"/><path d="m457.678 400.159h-27.519v-27.518h-30v27.518h-27.518v30h27.518v27.519h30v-27.519h27.519z" fill="#77ca95"/></g></g></svg>