<?xml version="1.0" encoding="iso-8859-1"?>
<!-- Generator: Adobe Illustrator 19.0.0, SVG Export Plug-In . SVG Version: 6.00 Build 0)  -->
<svg version="1.1" id="Layer_1" xmlns="http://www.w3.org/2000/svg" xmlns:xlink="http://www.w3.org/1999/xlink" x="0px" y="0px"
	 viewBox="0 0 495 495" style="enable-background:new 0 0 495 495;" xml:space="preserve">
<g>
	<path style="fill:#EE8700;" d="M230,100h180c27.57,0,50,22.43,50,50V80c0-27.57-22.43-50-50-50H225.813
		C228.499,36.129,230,42.891,230,50V100z"/>
	<path style="fill:#FFA733;" d="M410,100H230v228.57c14.395-58.725,67.47-102.429,130.57-102.429c39.36,0,74.823,17.004,99.43,44.05
		V150C460,122.43,437.57,100,410,100z"/>
	<path style="fill:#FFB655;" d="M230,328.57V50c0-7.109-1.501-13.871-4.187-20C218.081,12.359,200.461,0,180,0H50
		C22.43,0,0,22.43,0,50v330.57h227.63c-0.978-6.527-1.489-13.205-1.489-20C226.141,349.545,227.485,338.83,230,328.57z"/>
	<path style="fill:#FFDA44;" d="M340.571,422.186V380.57h-41.616v-40h41.616v-41.616h20v-72.814
		c-63.1,0-116.175,43.704-130.57,102.429c-2.515,10.26-3.859,20.976-3.859,32c0,6.795,0.511,13.473,1.489,20
		C237.319,445.244,293.24,495,360.57,495v-72.814H340.571z"/>
	<path style="fill:#FFCD00;" d="M460,270.191c-24.607-27.047-60.07-44.05-99.43-44.05v72.814h20v41.616h41.616v40h-41.616v41.616
		h-20V495C434.695,495,495,434.695,495,360.57C495,325.805,481.734,294.081,460,270.191z"/>
	<polygon style="fill:#2488FF;" points="340.571,340.57 298.955,340.57 298.955,380.57 340.571,380.57 340.571,422.186 
		380.571,422.186 380.571,380.57 422.187,380.57 422.187,340.57 380.571,340.57 380.571,298.955 340.571,298.955 	"/>
</g>
<g>
</g>
<g>
</g>
<g>
</g>
<g>
</g>
<g>
</g>
<g>
</g>
<g>
</g>
<g>
</g>
<g>
</g>
<g>
</g>
<g>
</g>
<g>
</g>
<g>
</g>
<g>
</g>
<g>
</g>
</svg>
