<?xml version="1.0" encoding="iso-8859-1"?>
<!-- Generator: Adobe Illustrator 19.0.0, SVG Export Plug-In . SVG Version: 6.00 Build 0)  -->
<svg version="1.1" id="Layer_1" xmlns="http://www.w3.org/2000/svg" xmlns:xlink="http://www.w3.org/1999/xlink" x="0px" y="0px"
	 viewBox="0 0 392.558 392.558" style="enable-background:new 0 0 392.558 392.558;" xml:space="preserve">
<path style="fill:#FFC10D;" d="M92.574,21.793c-39.046,0-70.788,31.741-70.788,70.788s31.741,70.788,70.788,70.788
	s70.788-31.741,70.788-70.788S131.62,21.793,92.574,21.793z"/>
<g>
	<path style="fill:#194F82;" d="M92.574,0.008C41.503,0.008,0,41.511,0,92.581s41.503,92.574,92.574,92.574
		c51.006,0,92.574-41.503,92.574-92.574S143.58,0.008,92.574,0.008z M92.574,163.369c-39.046,0-70.788-31.741-70.788-70.788
		s31.741-70.788,70.788-70.788s70.788,31.741,70.788,70.788S131.62,163.369,92.574,163.369z"/>
	<path style="fill:#194F82;" d="M389.301,114.238L324.913,49.85c-4.073-4.073-11.378-4.073-15.451,0L206.933,152.444
		c-4.267,4.267-4.267,11.119,0,15.451l24.501,24.501l-39.046,39.046l-24.501-24.501c-4.073-4.073-11.378-4.073-15.451,0
		L49.907,309.535c-4.267,4.267-4.267,11.119,0,15.451l64.388,64.388c4.848,4.396,11.313,4.073,15.45,0l102.594-102.594
		c4.267-4.59,4.331-11.119,0-15.451l-24.501-24.501l39.046-39.046l24.436,24.436c4.848,4.396,11.313,4.073,15.451,0l102.594-102.594
		C393.568,125.098,393.697,118.569,389.301,114.238z M209.196,279.022l-87.273,87.143l-49.002-49.002l87.143-87.143l16.743,16.743
		l-22.303,22.303c-4.267,4.267-4.267,11.119,0,15.451c4.008,4.59,11.766,3.943,15.451,0l22.303-22.303L209.196,279.022z
		 M279.014,209.074l-16.743-16.679l22.303-22.303c4.267-4.267,4.267-11.119,0-15.451c-4.267-4.267-11.119-4.267-15.451,0
		l-22.238,22.303l-16.873-16.873l87.143-87.143l49.002,49.002L279.014,209.074z"/>
	<path style="fill:#194F82;" d="M103.434,133.05v-29.608h29.608c6.012,0,10.925-4.848,10.925-10.925
		c0-6.012-4.848-10.925-10.925-10.925h-29.608V52.113c0-6.012-4.848-10.925-10.925-10.925c-6.012,0-10.925,4.848-10.925,10.925
		v29.608H52.105c-6.012,0-10.925,4.848-10.925,10.925c0,6.012,4.848,10.925,10.925,10.925h29.608v29.608
		c0,6.012,4.848,10.925,10.925,10.925C98.586,143.975,103.434,139.062,103.434,133.05z"/>
</g>
<g>
</g>
<g>
</g>
<g>
</g>
<g>
</g>
<g>
</g>
<g>
</g>
<g>
</g>
<g>
</g>
<g>
</g>
<g>
</g>
<g>
</g>
<g>
</g>
<g>
</g>
<g>
</g>
<g>
</g>
</svg>
