<svg  viewBox="0 -24 480.00001 480"  xmlns="http://www.w3.org/2000/svg"><g fill="#9bc9ff"><path d="m440 64h-88l-22.800781-39.839844c-5.683594-9.976562-16.277344-16.144531-27.757813-16.160156h-122.882812c-11.480469.015625-22.074219 6.183594-27.757813 16.160156l-22.800781 39.839844h-88c-17.671875 0-32 14.328125-32 32v224c0 17.671875 14.328125 32 32 32h229.039062c-3.347656-10.335938-5.050781-21.136719-5.039062-32-.023438-6.386719.566406-12.765625 1.761719-19.039062-8.4375 2.03125-17.085938 3.054687-25.761719 3.039062-61.855469 0-112-50.144531-112-112s50.144531-112 112-112 112 50.144531 112 112c.015625 8.675781-1.007812 17.324219-3.039062 25.761719 6.273437-1.195313 12.652343-1.785157 19.039062-1.761719 57.4375 0 104 46.5625 104 104v-224c0-17.671875-14.328125-32-32-32zm-40 64c-8.835938 0-16-7.164062-16-16s7.164062-16 16-16 16 7.164062 16 16-7.164062 16-16 16zm0 0"/><path d="m240 272c-36.648438.007812-68.613281-24.890625-77.582031-60.421875-8.96875-35.535156 7.355469-72.617187 39.617187-90.003906 32.257813-17.382813 72.207032-10.625 96.957032 16.402343 24.746093 27.027344 27.964843 67.417969 7.808593 98.023438 12.5-9.179688 26.910157-15.414062 42.160157-18.238281 2.03125-8.4375 3.054687-17.085938 3.039062-25.761719 0-61.855469-50.144531-112-112-112s-112 50.144531-112 112 50.144531 112 112 112c8.675781.015625 17.324219-1.007812 25.761719-3.039062 2.824219-15.25 9.058593-29.660157 18.238281-42.160157-13.054688 8.617188-28.355469 13.207031-44 13.199219zm0 0"/><path d="m48 32h64v32h-64zm0 0"/><path d="m384 40h48v24h-48zm0 0"/><path d="m416 112c0 8.835938-7.164062 16-16 16s-16-7.164062-16-16 7.164062-16 16-16 16 7.164062 16 16zm0 0"/></g><path d="m440 56v-16c0-4.417969-3.582031-8-8-8h-48c-4.417969 0-8 3.582031-8 8v16h-19.359375l-20.480469-35.792969c-7.105468-12.480469-20.359375-20.191406-34.71875-20.207031h-122.882812c-14.351563.015625-27.59375 7.71875-34.703125 20.183594l-20.496094 35.816406h-3.359375v-24c0-4.417969-3.582031-8-8-8h-64c-4.417969 0-8 3.582031-8 8v24c-22.082031.027344-39.9726562 17.917969-40 40v224c.0273438 22.082031 17.917969 39.972656 40 40h223.457031c19.277344 50.445312 71.816407 79.941406 124.921875 70.132812 53.101563-9.808593 91.636719-56.128906 91.621094-110.132812v-224c-.027344-22.082031-17.917969-39.972656-40-40zm-48-8h32v8h-32zm-336-8h48v16h-48zm222.945312 212.214844c-.191406.257812-.441406.472656-.632812.738281-31.027344 19.503906-71.753906 12.589844-94.605469-16.0625-22.851562-28.648437-20.539062-69.894531 5.375-95.808594 25.914063-25.914062 67.160157-28.226562 95.808594-5.375 28.652344 22.851563 35.566406 63.578125 16.0625 94.605469-.265625.191406-.480469.441406-.738281.632812-8.03125 6.078126-15.191406 13.238282-21.269532 21.269532zm63.292969-41.214844c-1.285156.304688-2.511719.742188-3.78125 1.089844-1.601562.421875-3.113281.847656-4.648437 1.335937-2.257813.71875-4.472656 1.597657-6.671875 2.398438-.898438.351562-1.839844.617187-2.730469.992187 11.378906-38.617187-4.882812-80.03125-39.496094-100.589844-34.609375-20.558593-78.757812-15.027343-107.226562 13.433594-28.46875 28.460938-34.011719 72.609375-13.460938 107.222656 20.550782 34.617188 61.957032 50.890626 100.578125 39.523438-.386719.921875-.65625 1.882812-1.023437 2.808594-.800782 2.152344-1.664063 4.320312-2.402344 6.527344-.496094 1.5625-.925781 3.144531-1.359375 4.738281-.34375 1.253906-.800781 2.480469-1.078125 3.757812-6.246094 1.175781-12.585938 1.765625-18.9375 1.761719-57.4375 0-104-46.5625-104-104s46.5625-104 104-104 104 46.5625 104 104c.007812 6.375-.582031 12.734375-1.761719 19zm25.761719 205c-53.019531 0-96-42.980469-96-96-.03125-5.90625.503906-11.796875 1.601562-17.601562 2.582032-14.070313 8.324219-27.367188 16.796876-38.894532.152343-.203125.292968-.417968.417968-.640625 2.277344-3 4.734375-5.859375 7.351563-8.566406.648437-.6875 1.183593-1.488281 1.855469-2.160156 3.335937-3.339844 6.917968-6.421875 10.710937-9.226563.261719-.140625.511719-.304687.746094-.484375 11.546875-8.480469 24.867187-14.222656 38.960937-16.800781 5.785156-1.101562 11.667969-1.644531 17.558594-1.625 53.019531 0 96 42.980469 96 96s-42.980469 96-96 96zm92.558594-158.960938c-1.773438-2.597656-3.65625-5.09375-5.597656-7.527343-.480469-.582031-.96875-1.152344-1.457032-1.726563-1.777344-2.097656-3.625-4.136718-5.542968-6.097656-.359376-.367188-.703126-.757812-1.074219-1.121094-2.214844-2.199218-4.535157-4.285156-6.925781-6.300781-.601563-.496094-1.207032-.984375-1.816407-1.472656-2.175781-1.753907-4.417969-3.441407-6.730469-5.03125-.367187-.257813-.710937-.53125-1.078124-.800781-2.609376-1.753907-5.304688-3.375-8.0625-4.90625-.6875-.382813-1.386719-.75-2.089844-1.125-2.574219-1.363282-5.199219-2.640626-7.886719-3.800782-.3125-.136718-.609375-.289062-.914063-.417968-2.941406-1.238282-5.957031-2.320313-9.023437-3.3125-.800781-.246094-1.527344-.476563-2.304687-.703126-2.957032-.886718-5.957032-1.6875-9.023438-2.328124l-.566406-.136719c-3.199219-.65625-6.488282-1.125-9.800782-1.503907l-2.457031-.246093c-3.390625-.273438-6.773437-.480469-10.207031-.480469-3.144531 0-6.214844.175781-9.246094.414062.792969-5.433593 1.210938-10.917968 1.246094-16.414062 0-66.273438-53.726562-120-120-120s-120 53.726562-120 120 53.726562 120 120 120c5.496094-.035156 10.984375-.453125 16.425781-1.257812-.25 3.042968-.425781 6.113281-.425781 9.257812 0 3.640625.230469 7.246094.585938 10.839844.09375 1.023437.230468 2.039062.351562 3.054687.351562 2.785157.800781 5.546875 1.351562 8.289063.117188.601562.167969 1.214844.296876 1.816406h-218.585938c-13.253906 0-24-10.746094-24-24v-224c0-13.253906 10.746094-24 24-24h88c2.863281.003906 5.511719-1.519531 6.945312-4l22.816407-39.863281c4.253906-7.484375 12.191406-12.113281 20.796875-12.136719h122.882812c8.605469.023438 16.542969 4.652344 20.796875 12.136719l22.800781 39.839843c1.429688 2.492188 4.085938 4.03125 6.960938 4.023438h88c13.253906 0 24 10.746094 24 24v166.398438c-.800781-1.335938-1.679688-2.621094-2.535156-3.917969-.304688-.503907-.59375-.984375-.90625-1.441407zm0 0" fill="#1e81ce"/><path d="m80 96c-4.417969 0-8 3.582031-8 8v192c0 4.417969 3.582031 8 8 8s8-3.582031 8-8v-192c0-4.417969-3.582031-8-8-8zm0 0" fill="#1e81ce"/><path d="m400 88c-13.253906 0-24 10.746094-24 24s10.746094 24 24 24 24-10.746094 24-24-10.746094-24-24-24zm0 32c-4.417969 0-8-3.582031-8-8s3.582031-8 8-8 8 3.582031 8 8-3.582031 8-8 8zm0 0" fill="#1e81ce"/><path d="m376 312v-56c0-4.417969-3.582031-8-8-8s-8 3.582031-8 8v56h-56c-4.417969 0-8 3.582031-8 8s3.582031 8 8 8h56v56c0 4.417969 3.582031 8 8 8s8-3.582031 8-8v-56h56c4.417969 0 8-3.582031 8-8s-3.582031-8-8-8zm0 0" fill="#1e81ce"/></svg>