<?xml version="1.0" encoding="iso-8859-1"?>
<!-- Generator: Adobe Illustrator 19.0.0, SVG Export Plug-In . SVG Version: 6.00 Build 0)  -->
<svg version="1.1" id="Capa_1" xmlns="http://www.w3.org/2000/svg" xmlns:xlink="http://www.w3.org/1999/xlink" x="0px" y="0px"
	 viewBox="0 0 512 512" style="enable-background:new 0 0 512 512;" xml:space="preserve">
<polygon style="fill:#FABE3D;" points="410.904,160.696 361.472,160.696 233.942,160.696 201.951,100.809 0,100.809 0,512 
	451.88,263.49 451.88,160.696 "/>
<polygon style="fill:#FCA741;" points="335.914,160.696 335.914,327.265 451.88,263.49 451.88,160.696 "/>
<polygon style="fill:#FC196B;" points="336.146,0 238.992,114.522 280.826,114.522 280.826,255.501 391.465,255.501 
	391.465,114.522 433.299,114.522 "/>
<polygon style="fill:#DA105C;" points="336.146,0 335.914,255.501 391.465,255.501 391.465,114.522 433.299,114.522 "/>
<polygon style="fill:#26E3FD;" points="482.27,248.519 59.989,248.519 59.989,375.533 482.27,316.943 "/>
<polygon style="fill:#24D0FD;" points="335.914,248.519 335.914,337.25 482.27,316.943 482.27,248.519 "/>
<polygon style="fill:#FDDA50;" points="95.712,301.433 0,511.002 447.989,511.002 512,301.433 "/>
<polygon style="fill:#FABE3D;" points="335.914,301.433 335.914,511.002 447.989,511.002 512,301.433 "/>
<g>
</g>
<g>
</g>
<g>
</g>
<g>
</g>
<g>
</g>
<g>
</g>
<g>
</g>
<g>
</g>
<g>
</g>
<g>
</g>
<g>
</g>
<g>
</g>
<g>
</g>
<g>
</g>
<g>
</g>
</svg>
